<?xml version="1.0" encoding="UTF-8"?>
<svg width="34px" height="34px" viewBox="0 0 34 34" version="1.1" xmlns="http://www.w3.org/2000/svg" xmlns:xlink="http://www.w3.org/1999/xlink" xmlns:sketch="http://www.bohemiancoding.com/sketch/ns">
    <!-- Generator: Sketch 3.4.2 (15855) - http://www.bohemiancoding.com/sketch -->
    <title>codepen</title>
    <desc>Created with Sketch.</desc>
    <defs></defs>
    <g id="Page-1" stroke="none" stroke-width="1" fill="none" fill-rule="evenodd" sketch:type="MSPage">
        <g id="Mobile" sketch:type="MSArtboardGroup" transform="translate(-159.000000, -148.000000)" fill="#9E1B37">
            <g id="home" sketch:type="MSLayerGroup" transform="translate(-67.000000, -67.000000)">
                <g id="social_media" transform="translate(226.000000, 211.000000)" sketch:type="MSShapeGroup">
                    <g id="codepen" transform="translate(0.000000, 4.000000)">
                        <path d="M24.4700855,15.2422793 L18.3997634,11.0060298 L18.3997634,4.19103442 L29.3705739,11.822419 L24.4700855,15.2422793 Z M26.9883433,17.0000572 L30.491701,14.5550105 L30.491701,19.4446461 L26.9883433,17.0000572 Z M18.3997634,22.9940847 L24.4700855,18.7578352 L29.3705739,22.1776955 L18.3997634,29.80908 L18.3997634,22.9940847 Z M9.52947573,18.7578352 L15.5997978,22.9940847 L15.5997978,29.80908 L4.62942613,22.1776955 L9.52947573,18.7578352 Z M7.01121795,17.0000572 L3.50829899,19.4446461 L3.50829899,14.5550105 L7.01121795,17.0000572 Z M15.5997978,11.0060298 L9.52947573,15.2422793 L4.62942613,11.822419 L15.5997978,4.19103442 L15.5997978,11.0060298 Z M17,20.4560896 L12.0477335,17.0000572 L17,13.543567 L21.9522665,17.0000572 L17,20.4560896 Z M33.2679716,11.5664675 C33.2605121,11.5248009 33.2539301,11.4840502 33.243399,11.4437573 C33.236817,11.4194899 33.2289187,11.3965962 33.2214591,11.3727868 C33.2104892,11.3370726 33.1995192,11.3013585 33.1854777,11.2661022 C33.1758242,11.2422927 33.1648542,11.2184833 33.1543231,11.1951317 C33.139404,11.1621648 33.1240461,11.1296558 33.1064942,11.0980625 C33.0937691,11.0747109 33.0801664,11.0527329 33.0665636,11.0302971 C33.0476954,11.0000774 33.0283883,10.9703156 33.007326,10.9414696 C32.9919681,10.9204074 32.9761714,10.8993452 32.9594971,10.8787408 C32.9375572,10.8512684 32.9138622,10.8251696 32.8897283,10.7995287 C32.8712988,10.7798401 32.8528694,10.7606094 32.8340011,10.7422944 C32.8085508,10.718485 32.7817842,10.6955913 32.7545788,10.6731555 C32.7335165,10.6562141 32.712893,10.6388149 32.6909531,10.6232472 C32.6834936,10.6172948 32.676034,10.6104267 32.6681357,10.6049322 L17.7762324,0.245534888 C17.3062805,-0.0818449625 16.6932807,-0.0818449625 16.2233288,0.245534888 L1.33186432,10.6049322 C1.32352717,10.6104267 1.31650641,10.6172948 1.30860806,10.6232472 C1.28666819,10.6388149 1.26604472,10.6562141 1.24498245,10.6731555 C1.21821581,10.6955913 1.19101038,10.718485 1.16599893,10.7422944 C1.14669185,10.7606094 1.12826236,10.7798401 1.11027167,10.7995287 C1.08569902,10.8251696 1.06244277,10.8512684 1.0400641,10.8787408 C1.0233898,10.8993452 1.0075931,10.9204074 0.992235195,10.9414696 C0.971172924,10.9703156 0.951865842,11.0000774 0.932997558,11.0302971 C0.919394841,11.0527329 0.905792125,11.0747109 0.8935058,11.0980625 C0.87551511,11.1296558 0.860157204,11.1621648 0.845676893,11.1951317 C0.835145757,11.2184833 0.823737027,11.2422927 0.814522283,11.2661022 C0.800919567,11.3013585 0.789072039,11.3370726 0.778102106,11.3727868 C0.770642552,11.3965962 0.7627442,11.4194899 0.756601038,11.4437573 C0.7465087,11.4840502 0.739049145,11.5248009 0.732028388,11.5664675 C0.72851801,11.5875297 0.723691239,11.608134 0.720619658,11.6291962 C0.712721306,11.6923828 0.708333333,11.7560273 0.708333333,11.8201296 L0.708333333,22.179527 C0.708333333,22.2440872 0.712721306,22.3072738 0.720619658,22.3704604 C0.723691239,22.3919805 0.72851801,22.4125848 0.732028388,22.433647 C0.739049145,22.4743978 0.7465087,22.5156064 0.756601038,22.5558993 C0.7627442,22.5801667 0.770642552,22.6035182 0.778102106,22.6268698 C0.789072039,22.6630418 0.800919567,22.698756 0.814522283,22.7340123 C0.823737027,22.7582796 0.835145757,22.7811733 0.845676893,22.8045249 C0.860157204,22.8374918 0.87551511,22.8700008 0.8935058,22.902052 C0.905792125,22.9249457 0.919394841,22.9473815 0.932997558,22.9689016 C0.951865842,22.9995792 0.971172924,23.0288831 0.992235195,23.058187 C1.0075931,23.080165 1.0233898,23.1007693 1.0400641,23.1213736 C1.06244277,23.1483882 1.08569902,23.1749449 1.11027167,23.2001279 C1.12826236,23.2193586 1.14669185,23.2390472 1.16599893,23.2569043 C1.19101038,23.2811716 1.21821581,23.3045232 1.24498245,23.326959 C1.26604472,23.3439003 1.28666819,23.3608417 1.30860806,23.3768673 C1.31650641,23.3828196 1.32352717,23.3892299 1.33186432,23.3947243 L16.2233288,33.7541217 C16.4585241,33.9180406 16.7288233,34 17,34 C17.2707379,34 17.5414759,33.9180406 17.7762324,33.7541217 L32.6681357,23.3947243 C32.676034,23.3892299 32.6834936,23.3828196 32.6909531,23.3768673 C32.712893,23.3608417 32.7335165,23.3439003 32.7545788,23.326959 C32.7817842,23.3045232 32.8085508,23.2811716 32.8340011,23.2569043 C32.8528694,23.2390472 32.8712988,23.2193586 32.8897283,23.2001279 C32.9138622,23.1749449 32.9375572,23.1483882 32.9594971,23.1213736 C32.9761714,23.1007693 32.9919681,23.080165 33.007326,23.058187 C33.0283883,23.0288831 33.0476954,22.9995792 33.0665636,22.9689016 C33.0801664,22.9473815 33.0937691,22.9249457 33.1064942,22.902052 C33.1240461,22.8700008 33.139404,22.8374918 33.1543231,22.8045249 C33.1648542,22.7811733 33.1758242,22.7582796 33.1854777,22.7340123 C33.1995192,22.698756 33.2104892,22.6630418 33.2214591,22.6268698 C33.2289187,22.6035182 33.236817,22.5801667 33.243399,22.5558993 C33.2539301,22.5156064 33.2605121,22.4743978 33.2679716,22.433647 C33.271482,22.4125848 33.2763088,22.3919805 33.2789415,22.3704604 C33.2868399,22.3072738 33.2916667,22.2440872 33.2916667,22.179527 L33.2916667,11.8201296 C33.2916667,11.7560273 33.2868399,11.6923828 33.2789415,11.6291962 C33.2763088,11.608134 33.271482,11.5875297 33.2679716,11.5664675 L33.2679716,11.5664675 Z" id="Shape"></path>
                    </g>
                </g>
            </g>
        </g>
    </g>
</svg>