<?xml version="1.0" encoding="UTF-8"?>
<svg width="36px" height="36px" viewBox="0 0 36 36" version="1.1" xmlns="http://www.w3.org/2000/svg" xmlns:xlink="http://www.w3.org/1999/xlink" xmlns:sketch="http://www.bohemiancoding.com/sketch/ns">
    <!-- Generator: Sketch 3.4.2 (15855) - http://www.bohemiancoding.com/sketch -->
    <title>github</title>
    <desc>Created with Sketch.</desc>
    <defs></defs>
    <g id="Page-1" stroke="none" stroke-width="1" fill="none" fill-rule="evenodd" sketch:type="MSPage">
        <g id="iPhone-6-Plus" sketch:type="MSArtboardGroup" transform="translate(-233.000000, -264.000000)" fill="#9E1B37">
            <g id="home_page-copy" sketch:type="MSLayerGroup" transform="translate(-681.000000, -166.000000)">
                <g id="social_media" transform="translate(0.000000, 314.000000)" sketch:type="MSShapeGroup">
                    <g id="github">
                        <g transform="translate(914.000000, 116.000000)">
                            <path d="M0,18.4566508 C0,26.6097544 5.15706437,33.5278827 12.3097701,35.9683754 C13.2103502,36.1383261 13.5385371,35.5684246 13.5385371,35.0789665 C13.5385371,34.6404936 13.523067,33.4802965 13.514227,31.9405427 C8.50744345,33.0554196 7.45105743,29.4660599 7.45105743,29.4660599 C6.63224777,27.3337446 5.45210105,26.7661091 5.45210105,26.7661091 C3.81779674,25.6206411 5.57586175,25.6444342 5.57586175,25.6444342 C7.38254704,25.7747298 8.33285245,27.5467495 8.33285245,27.5467495 C9.9395316,30.3667989 12.5462414,29.5521683 13.5716873,29.0797052 C13.7352282,27.886651 14.2004359,27.0742865 14.7142638,26.6120204 C10.717456,26.1463554 6.5151171,24.5635475 6.5151171,17.4913305 C6.5151171,15.4757147 7.2167961,13.8283255 8.36821265,12.5378329 C8.1836766,12.0710348 7.56597808,10.1947786 8.54501366,7.65458149 C8.54501366,7.65458149 10.0566623,7.15719231 13.4943368,9.54556676 C14.930845,9.13655197 16.4701188,8.93147808 18.0005525,8.92468005 C19.5298812,8.93147808 21.069155,9.13655197 22.5078732,9.54556676 C25.9433377,7.15719231 27.4527763,7.65458149 27.4527763,7.65458149 C28.4340219,10.1947786 27.8163234,12.0710348 27.6317873,12.5378329 C28.7854139,13.8283255 29.4815679,15.4757147 29.4815679,17.4913305 C29.4815679,24.5805425 25.2737039,26.1406904 21.2636361,26.5984244 C21.9100648,27.1683259 22.484668,28.2945328 22.484668,30.0155673 C22.484668,32.4832521 22.4636729,34.4739418 22.4636729,35.0789665 C22.4636729,35.5729566 22.7874398,36.1462571 23.70128,35.9661094 C30.8473557,33.5210847 36,26.6086214 36,18.4566508 C36,8.26300515 27.9400841,0 17.9983425,0 C8.0599159,0 0,8.26300515 0,18.4566508 Z" id="Shape"></path>
                        </g>
                    </g>
                </g>
            </g>
        </g>
    </g>
</svg>