<?xml version="1.0" encoding="UTF-8"?>
<svg width="36px" height="36px" viewBox="0 0 36 36" version="1.1" xmlns="http://www.w3.org/2000/svg" xmlns:xlink="http://www.w3.org/1999/xlink" xmlns:sketch="http://www.bohemiancoding.com/sketch/ns">
    <!-- Generator: Sketch 3.4.2 (15855) - http://www.bohemiancoding.com/sketch -->
    <title>instagram</title>
    <desc>Created with Sketch.</desc>
    <defs></defs>
    <g id="Page-1" stroke="none" stroke-width="1" fill="none" fill-rule="evenodd" sketch:type="MSPage">
        <g id="iPhone-6-Plus" sketch:type="MSArtboardGroup" transform="translate(-287.000000, -264.000000)" fill="#9E1B37">
            <g id="home_page-copy" sketch:type="MSLayerGroup" transform="translate(-681.000000, -166.000000)">
                <g id="social_media" transform="translate(0.000000, 314.000000)" sketch:type="MSShapeGroup">
                    <g id="instagram">
                        <g transform="translate(968.000000, 116.000000)">
                            <path d="M29.0425682,0 L6.9574318,0 C3.12206021,0 0,3.11994356 0,6.9574318 L0,29.0425682 C0,32.8800564 3.12206021,36 6.9574318,36 L29.0425682,36 C32.8779398,36 36,32.8800564 36,29.0425682 L36,6.9574318 C36,3.11994356 32.8779398,0 29.0425682,0 L29.0425682,0 Z M31.0385701,4.15075259 L31.8344309,4.14651929 L31.8344309,10.2488241 L25.7511759,10.2678739 L25.7300094,4.16556914 L31.0385701,4.15075259 L31.0385701,4.15075259 Z M12.8628881,14.3043274 C14.0143462,12.7083725 15.8854657,11.6627469 18,11.6627469 C20.1145343,11.6627469 21.9856538,12.7083725 23.1371119,14.3043274 C23.888523,15.3457197 24.3372531,16.6199436 24.3372531,18 C24.3372531,21.4924741 21.4945908,24.3351364 18,24.3351364 C14.5075259,24.3351364 11.6648636,21.4924741 11.6648636,18 C11.6648636,16.6199436 12.1135936,15.3457197 12.8628881,14.3043274 L12.8628881,14.3043274 Z M32.4927093,29.0425682 C32.4927093,30.9454374 30.9454374,32.4927093 29.0425682,32.4927093 L6.9574318,32.4927093 C5.05456256,32.4927093 3.50729069,30.9454374 3.50729069,29.0425682 L3.50729069,14.3043274 L8.8835842,14.3043274 C8.41792098,15.4473189 8.15757291,16.6940263 8.15757291,18 C8.15757291,23.4270931 12.5729069,27.8445437 18,27.8445437 C23.4292098,27.8445437 27.8445437,23.4270931 27.8445437,18 C27.8445437,16.6940263 27.5799624,15.4473189 27.1185325,14.3043274 L32.4927093,14.3043274 L32.4927093,29.0425682 L32.4927093,29.0425682 Z" id="Shape"></path>
                        </g>
                    </g>
                </g>
            </g>
        </g>
    </g>
</svg>